<svg xmlns="http://www.w3.org/2000/svg" xmlns:xlink="http://www.w3.org/1999/xlink" preserveAspectRatio="xMidYMid" width="192" height="256" viewBox="0 0 192 256">
  <defs>
    <style>
      .cls-1 {
        fill: url(#linear-gradient-1);
        fill-rule: evenodd;
      }
    </style>

    <linearGradient id="linear-gradient-1" gradientUnits="userSpaceOnUse" x1="45.637" y1="213.5" x2="144.363" y2="42.5">
      <stop offset="0" stop-color="#aa8f30"/>
      <stop offset="1" stop-color="#f7e554"/>
    </linearGradient>
  </defs>
  <path d="M96.900,256.000 C96.234,256.000 95.631,255.990 95.000,255.984 C94.369,255.990 93.766,256.000 93.100,256.000 C53.106,256.000 9.500,245.824 9.500,224.595 C9.500,203.366 61.750,196.045 61.750,196.045 L67.450,205.561 C67.450,205.561 19.950,212.535 19.950,224.595 C19.950,235.905 54.266,245.532 92.150,245.532 C93.088,245.532 94.042,245.567 95.000,245.622 C95.958,245.567 96.912,245.532 97.850,245.532 C135.734,245.532 170.050,235.905 170.050,224.595 C170.050,212.535 122.550,205.561 122.550,205.561 L128.250,196.045 C128.250,196.045 180.500,203.366 180.500,224.595 C180.500,245.824 136.894,256.000 96.900,256.000 ZM95.000,237.918 C95.000,237.918 13.300,137.041 13.300,79.941 C13.300,28.550 57.000,-0.000 93.100,-0.000 C93.762,-0.000 94.324,-0.013 95.000,-0.000 C95.607,-0.013 96.238,-0.000 96.900,-0.000 C133.000,-0.000 176.700,28.550 176.700,79.941 C176.700,137.041 95.000,237.918 95.000,237.918 ZM95.000,40.937 C75.066,40.937 58.906,56.698 58.906,76.141 C58.906,95.583 75.066,111.344 95.000,111.344 C114.934,111.344 131.094,95.583 131.094,76.141 C131.094,56.698 114.934,40.937 95.000,40.937 Z" class="cls-1"/>
</svg>
